<svg version="1.1" xmlns="http://www.w3.org/2000/svg" xmlns:xlink="http://www.w3.org/1999/xlink" width="149.34164" height="64.9402" viewBox="0,0,149.34164,64.9402"><g transform="translate(-43.72919,-46.7299)"><g data-paper-data="{&quot;isPaintingLayer&quot;:true}" fill="#ffffff" fill-rule="nonzero" stroke="slategrey" stroke-width="2" stroke-linecap="round" stroke-linejoin="miter" stroke-miterlimit="10" stroke-dasharray="" stroke-dashoffset="0" style="mix-blend-mode: normal"><path d="M136.85452,90.49504l-31.03977,-1.08912l-20.69318,8.16836l0.27228,6.26241h4.90102l3.53962,6.26241l-12.7971,0.54455l-8.71292,-17.15356l-0.81684,12.52482l-8.9852,-1.08911l7.89608,-13.88622l2.72279,-19.60407l-0.81684,5.71785l-27.22787,19.60407l3.26735,-20.4209l42.20319,-26.41103l9.52976,-2.17823l37.30218,5.72806h10.89115l13.34165,6.80697l17.15356,4.08418l10.34659,14.15849l2.72279,9.52975l-7.35152,2.72279l-10.07431,-3.8119h-9.52975l-4.62874,-7.89608l1.90595,3.26735l-4.90102,5.71785l0.81684,8.44064l10.07431,6.53469l10.07431,6.26241l-16.33672,1.08911l-23.14369,-12.7971c-0.63305,-2.36656 -1.26837,-4.72971 -1.90595,-7.08945z"/><path d="M165.17151,68.71275l1.36139,-4.08418l4.90102,1.08912l0.81684,3.8119"/><path d="M135.54078,76.18339l1.31374,14.32186"/></g></g></svg>